<svg width="200" height="200" viewBox="0 0 200 200" xmlns="http://www.w3.org/2000/svg">
<rect xmlns="http://www.w3.org/2000/svg" width="190" height="144" rx="10" ry="10" fill="white"></rect>
<g transform="matrix(6.938020694292581,0,0,6.938020694292581,15.004621593304906,-15.800189032197842)" fill="black"><path d="M4.42 5.18 l-0.06 13.02 l1.6 -0.22 l1.4 0.04 l-0.06 1.88 l-1.2 0.16 l-5.12 -0.04 l-0.26 -13.42 l0.3 -1.44 z M8.08 5.220000000000001 l0.98 0.02 l4.78 -0.02 l0.9 0.06 l0.06 1.94 l-0.06 1.78 l-2 -0.06 l-1.86 -0.08 l0.06 1.1 l-0.06 1.06 l3.34 -0.08 l-0.02 1.28 l-0.14 0.4 l-3.04 0.16 l-0.24 0.06 l0.02 3.42 l0 0.84 l2.18 0.1 l1.56 0 l-0.04 2.88 l-2.46 -0.1 l-3.82 0.1 l-0.26 -3.14 l0.24 -5.48 l-0.22 -4.94 z M15.62 5.220000000000001 l0.98 0.02 l4.78 -0.02 l0.9 0.06 l0.06 1.94 l-0.06 1.78 l-2 -0.06 l-1.86 -0.08 l0.06 1.1 l-0.06 1.06 l3.34 -0.08 l-0.02 1.28 l-0.14 0.4 l-3.04 0.16 l-0.24 0.06 l0.02 3.42 l0 0.84 l2.18 0.1 l1.56 0 l-0.04 2.88 l-2.46 -0.1 l-3.82 0.1 l-0.26 -3.14 l0.24 -5.48 l-0.22 -4.94 z"></path></g>

</svg>